<svg xmlns="http://www.w3.org/2000/svg" viewBox="0 0 512 512">
  <defs>
    <!-- Column gradients: each column has its own color range -->
    <linearGradient id="col1" gradientUnits="userSpaceOnUse" x1="122" y1="136" x2="122" y2="416">
      <stop offset="0%" stop-color="#c6f430"/>
      <stop offset="100%" stop-color="#8bc34a"/>
    </linearGradient>
    <linearGradient id="col2" gradientUnits="userSpaceOnUse" x1="256" y1="136" x2="256" y2="416">
      <stop offset="0%" stop-color="#96cc00"/>
      <stop offset="100%" stop-color="#5d9e1b"/>
    </linearGradient>
    <linearGradient id="col3" gradientUnits="userSpaceOnUse" x1="390" y1="136" x2="390" y2="416">
      <stop offset="0%" stop-color="#6b9b00"/>
      <stop offset="100%" stop-color="#3d7a0a"/>
    </linearGradient>
    <!-- Bridge gradients: transition between adjacent column colors -->
    <linearGradient id="br1" gradientUnits="userSpaceOnUse" x1="136" y1="136" x2="242" y2="136">
      <stop offset="0%" stop-color="#c6f430"/>
      <stop offset="100%" stop-color="#96cc00"/>
    </linearGradient>
    <linearGradient id="br2" gradientUnits="userSpaceOnUse" x1="270" y1="136" x2="376" y2="136">
      <stop offset="0%" stop-color="#96cc00"/>
      <stop offset="100%" stop-color="#6b9b00"/>
    </linearGradient>
  </defs>

  <!-- Green M logo centered (~83% occupancy for Windows taskbar visibility) -->
  <g transform="translate(256,256) scale(1.15) translate(-256,-276)">
    <!-- Columns -->
    <rect x="72" y="136" width="100" height="280" rx="36" fill="url(#col1)"/>
    <rect x="206" y="136" width="100" height="280" rx="36" fill="url(#col2)"/>
    <rect x="340" y="136" width="100" height="280" rx="36" fill="url(#col3)"/>
    <!-- V-notch bridges -->
    <path d="M136,136 L168,200 Q189,236 210,200 L242,136 Z" fill="url(#br1)"/>
    <path d="M270,136 L302,200 Q323,236 344,200 L376,136 Z" fill="url(#br2)"/>
  </g>
</svg>
